<?xml version="1.0" encoding="UTF-8"?>
<!DOCTYPE svg PUBLIC "-//W3C//DTD SVG 1.1//EN" "http://www.w3.org/Graphics/SVG/1.1/DTD/svg11.dtd">
<!-- Creator: CorelDRAW X7 -->
<svg xmlns="http://www.w3.org/2000/svg" xml:space="preserve" width="5in" height="2.53737in" version="1.1" style="shape-rendering:geometricPrecision; text-rendering:geometricPrecision; image-rendering:optimizeQuality; fill-rule:evenodd; clip-rule:evenodd"
viewBox="0 0 5000 2537"
 xmlns:xlink="http://www.w3.org/1999/xlink">
 <defs>
  <style type="text/css">
   <![CDATA[
    .fil2 {fill:#FEFEFE;fill-rule:nonzero}
    .fil3 {fill:#1D3B70;fill-rule:nonzero}
    .fil5 {fill:black;fill-rule:nonzero}
    .fil1 {fill:#1E3C6E;fill-rule:nonzero}
    .fil0 {fill:#D9DADA;fill-rule:nonzero}
    .fil4 {fill:#ED3237;fill-rule:nonzero}
   ]]>
  </style>
 </defs>
 <g id="Layer_x0020_1">
  <metadata id="CorelCorpID_0Corel-Layer"/>
  <g id="_1300006094384">
   <path class="fil0" d="M3746 807c0,335 -592,606 -1321,606 -730,0 -1322,-271 -1322,-606 0,-334 592,-606 1322,-606 729,0 1321,272 1321,606z"/>
   <path class="fil1" d="M3200 631c-73,0 -133,-142 -133,-316 0,-174 60,-315 133,-315l216 0c73,0 133,141 133,315 0,174 -60,316 -133,316l-216 0zm-73 -100l44 -33 41 26 61 -35 25 27 38 -11 -14 42 -10 -6 -18 16 -29 -29 -59 30 -36 -28 -43 1zm-26 -352l48 -29 39 29 63 -29 23 29 38 -7 -17 41 -10 -8 -19 16 -26 -33 -61 25 -34 -31 -44 -3zm35 -97l47 -29 39 29 63 -29 23 29 39 -8 -18 41 -10 -7 -18 15 -27 -32 -61 24 -34 -31 -43 -2zm-42 219l44 -35 42 24 59 -37 26 26 38 -13 -13 43 -10 -6 -17 18 -31 -29 -57 32 -38 -26 -43 3zm0 112l44 -35 42 24 59 -37 26 26 38 -12 -13 43 -10 -7 -17 18 -31 -29 -57 32 -38 -26 -43 3z"/>
   <path class="fil2" d="M3287 315c0,-174 59,-315 132,-315 74,0 133,141 133,315 0,174 -59,316 -133,316 -73,0 -132,-142 -132,-316z"/>
   <path class="fil1" d="M3418 0c-4,0 -8,0 -11,1 68,13 122,149 122,314 0,166 -54,301 -122,315 3,0 7,1 11,1 73,0 132,-141 132,-316 0,-174 -59,-315 -132,-315z"/>
   <path class="fil3" d="M3407 1c-4,-1 -8,-1 -11,-1l11 1z"/>
   <path class="fil3" d="M3396 631c3,0 7,-1 11,-1l-11 1z"/>
   <path class="fil1" d="M3423 154c2,0 3,1 5,1 -35,7 -62,76 -62,160 0,85 27,154 62,161 -2,0 -3,0 -5,0 -38,0 -68,-72 -68,-161 0,-89 30,-161 68,-161z"/>
   <path class="fil3" d="M3428 155c2,0 4,-1 6,-1l-6 1z"/>
   <path class="fil3" d="M3434 476c-2,0 -4,0 -6,0l6 0z"/>
   <path class="fil2" d="M3127 531l44 -33 41 26 61 -35 25 27 38 -11 -14 42 -10 -6 -18 16 -29 -29 -59 30 -36 -28 -43 1zm-26 -352l48 -29 39 29 63 -29 23 29 38 -7 -17 41 -10 -8 -19 16 -26 -33 -61 25 -34 -31 -44 -3zm35 -97l47 -29 39 29 63 -29 23 29 39 -8 -18 41 -10 -7 -18 15 -27 -32 -61 24 -34 -31 -43 -2zm-42 219l44 -35 42 24 59 -37 26 26 38 -13 -13 43 -10 -6 -17 18 -31 -29 -57 32 -38 -26 -43 3zm0 112l44 -35 42 24 59 -37 26 26 38 -12 -13 43 -10 -7 -17 18 -31 -29 -57 32 -38 -26 -43 3z"/>
   <path class="fil1" d="M4425 22l-792 0c0,0 -23,198 -229,251l0 110c0,0 250,-78 294,-260l576 91c0,0 109,-59 151,-192z"/>
   <path class="fil1" d="M3685 233l365 150c0,0 114,0 166,-99l-495 -126c0,0 -7,32 -36,75z"/>
   <path class="fil1" d="M3664 257l318 158c0,0 -5,53 -141,56l-221 -163c0,0 23,-27 44,-51z"/>
   <path class="fil1" d="M3586 334l188 161c0,0 -79,40 -164,13l-81 -125c0,0 36,-24 57,-49z"/>
   <path class="fil1" d="M3402 0c3,0 7,0 10,1 -68,13 -122,149 -122,314 0,166 54,301 122,315 -3,0 -7,1 -10,1 -74,0 -133,-141 -133,-316 0,-174 59,-315 133,-315z"/>
   <path class="fil3" d="M3412 1c4,-1 8,-1 11,-1l-11 1z"/>
   <path class="fil1" d="M2431 405c179,0 341,12 480,37l19 -53c-148,-23 -316,-34 -500,-34 -652,0 -1185,158 -1185,466 0,305 533,467 1185,467 653,0 1185,-180 1185,-467 0,-55 -17,-106 -50,-152l-131 66c10,27 15,56 15,87 0,256 -459,417 -1018,417 -559,0 -1015,-139 -1015,-417 0,-276 456,-417 1015,-417z"/>
   <path class="fil4" d="M3300 822c0,-58 -69,-101 -127,-99 -61,1 -123,46 -123,106 -1,70 62,110 127,111 64,0 124,-56 123,-118zm-394 119c-1,4 -3,7 -6,10 -6,-1 -10,-3 -14,-6 -43,29 -96,46 -148,47 -88,2 -186,-64 -186,-163 0,-99 106,-163 188,-163 46,0 93,10 135,28 6,-2 14,-6 19,-7 1,3 6,6 7,9l-45 72c-4,0 -8,-1 -12,-4l0 -15c-28,-18 -67,-30 -104,-30 -63,0 -122,55 -122,113 3,59 66,105 128,105 40,0 93,-16 112,-39 0,-5 2,-12 2,-16 3,-1 3,-2 5,-4l41 63zm-402 62l-10 0c-1,-4 -4,-10 -7,-13l-295 0 0 -9c5,0 12,-3 16,-8l0 -287 -16 -6 0 -9 101 0 0 12 -17 5 0 247 212 0 7 -16 9 0 0 84zm-404 -321l-19 8 0 287 16 4 0 9 -101 0 0 -9 18 -4 0 -291 -18 -4 0 -11 104 0 0 11zm-319 185l-48 -110 -54 110 102 0zm147 123l-106 0c-2,-2 -2,-7 0,-9 4,-1 10,-3 14,-4l-33 -70 -143 0 -31 66 15 8c1,2 0,7 0,9l-84 0c0,-2 0,-7 1,-9 2,-3 7,-2 9,-5l129 -278 0 -11 -12 -7 0 -10 100 0 0 12 -12 5 1 11 138 279c4,1 9,1 14,3 1,3 1,6 0,10zm1440 -166c-1,101 -99,165 -191,168 -95,3 -196,-69 -194,-163 2,-93 100,-161 190,-163 89,0 196,58 195,158z"/>
   <path class="fil5" d="M31 2448c-7,0 -12,-1 -14,-2 -3,-2 -4,-4 -4,-8 0,-4 4,-8 11,-12 2,-2 5,-3 6,-4 3,-2 4,-5 6,-9 1,-3 1,-9 1,-17l0 -224c0,-7 0,-12 -1,-15 0,-3 -1,-5 -3,-8 -1,-2 -5,-4 -11,-8 -6,-3 -9,-7 -9,-11 0,-3 1,-6 4,-7 2,-2 7,-3 14,-3l50 0c8,0 14,1 16,2 3,2 4,4 4,7 0,5 -3,9 -11,12 -3,2 -6,4 -9,5 -2,2 -4,5 -5,9 -2,3 -2,9 -2,17l0 217c0,16 2,25 7,29 6,4 21,5 46,5 22,0 38,-1 50,-3 11,-2 21,-5 30,-10 4,-2 9,-5 16,-10 7,-5 11,-8 14,-8 3,0 4,1 5,2 1,2 2,4 2,8 0,8 -1,16 -2,24 -2,8 -3,13 -5,15 -2,3 -4,4 -8,5 -3,1 -10,2 -21,2l-177 0zm4881 -795l78 0 0 384 -78 0 0 -384zm-159 384l0 -42 -1 0c-12,16 -25,28 -37,36 -12,7 -28,11 -46,11 -31,0 -57,-13 -78,-38 -22,-25 -33,-55 -33,-91 0,-35 12,-65 35,-90 23,-26 50,-38 81,-38 15,0 29,3 41,9 12,7 25,17 38,31l0 -35 78 0 0 247 -78 0zm-57 -178c-16,0 -29,5 -39,17 -10,12 -15,26 -15,44 0,16 4,30 14,40 10,10 23,15 39,15 16,0 29,-6 40,-18 11,-11 16,-25 16,-42 0,-15 -5,-28 -16,-40 -11,-11 -24,-16 -39,-16zm-364 -69l0 29c26,-23 54,-35 84,-35 25,0 45,9 62,29 16,19 24,44 24,74l0 150 -79 0 0 -138c0,-14 -4,-26 -12,-36 -9,-10 -19,-15 -30,-15 -15,0 -26,6 -35,19 -10,12 -14,28 -14,48l0 122 -78 0 0 -247 78 0zm-423 124c0,-38 13,-69 39,-93 26,-25 59,-37 99,-37 38,0 70,13 95,37 26,25 38,55 38,92 0,37 -12,68 -38,93 -25,24 -57,36 -96,36 -43,0 -77,-13 -101,-39 -24,-26 -36,-55 -36,-89zm195 0c0,-17 -6,-31 -18,-44 -11,-12 -25,-18 -40,-18 -16,0 -30,5 -42,17 -11,12 -17,26 -17,42 0,18 6,33 17,46 12,12 25,18 42,18 15,0 29,-6 40,-18 12,-12 18,-26 18,-43zm-356 -216c0,-12 5,-23 14,-32 10,-9 21,-13 35,-13 13,0 25,4 34,13 10,9 14,20 14,32 0,13 -4,24 -14,33 -9,9 -21,13 -34,13 -14,0 -25,-4 -35,-13 -9,-9 -14,-20 -14,-33zm10 92l78 0 0 247 -78 0 0 -247zm-166 -85l78 0 0 85 38 0 0 67 -38 0 0 180 -78 0 0 -180 -30 0 0 -67 30 0 0 -85zm-168 332l0 -42 -1 0c-12,16 -24,28 -37,36 -12,7 -27,11 -46,11 -30,0 -57,-13 -78,-38 -22,-25 -32,-55 -32,-91 0,-35 11,-65 34,-90 23,-26 50,-38 82,-38 15,0 28,3 40,9 12,7 25,17 38,31l0 -35 78 0 0 247 -78 0zm-57 -178c-15,0 -28,5 -39,17 -10,12 -15,26 -15,44 0,16 5,30 15,40 9,10 22,15 38,15 16,0 29,-6 40,-18 11,-11 16,-25 16,-42 0,-15 -5,-28 -16,-40 -11,-11 -24,-16 -39,-16zm-364 -69l0 29c27,-23 55,-35 84,-35 25,0 46,9 62,29 16,19 24,44 24,74l0 150 -79 0 0 -138c0,-14 -4,-26 -12,-36 -8,-10 -18,-15 -30,-15 -14,0 -26,6 -35,19 -9,12 -14,28 -14,48l0 122 -78 0 0 -247 78 0zm-211 0l0 36 1 0c8,-12 17,-22 27,-29 10,-7 20,-11 29,-11 5,0 10,1 14,1l0 81c-7,-1 -13,-2 -19,-2 -16,0 -29,6 -38,16 -8,11 -13,26 -13,45l0 110 -79 0 0 -247 78 0zm-129 141l-187 0c1,16 6,29 16,39 11,10 22,15 36,15 24,0 42,-10 56,-31l72 23c-27,43 -68,65 -124,65 -42,0 -74,-11 -99,-35 -24,-24 -36,-55 -36,-95 0,-36 12,-66 38,-91 26,-24 57,-36 95,-36 38,0 69,13 95,38 25,26 38,58 38,96l0 12zm-187 -49l106 0c-7,-31 -24,-47 -50,-47 -15,0 -28,4 -38,12 -10,8 -15,20 -18,35zm-220 -177l78 0 0 85 38 0 0 67 -38 0 0 180 -78 0 0 -180 -29 0 0 -67 29 0 0 -85zm-247 85l0 29c27,-23 55,-35 84,-35 25,0 46,9 62,29 16,19 25,44 25,74l0 150 -80 0 0 -138c0,-14 -4,-26 -12,-36 -8,-10 -18,-15 -30,-15 -14,0 -26,6 -35,19 -9,12 -14,28 -14,48l0 122 -78 0 0 -247 78 0zm-247 -131l86 0 0 378 -86 0 0 -378zm-322 -6l78 0 0 384 -77 0 0 -42 -1 0c-23,31 -51,46 -84,46 -31,0 -56,-12 -77,-37 -22,-25 -32,-55 -32,-91 0,-35 11,-66 33,-91 22,-25 48,-38 79,-38 17,0 32,3 44,9 12,6 24,16 37,30l0 -170zm-58 204c-13,0 -25,6 -36,17 -11,11 -17,26 -17,45 0,15 5,28 15,39 10,11 22,16 36,16 16,0 30,-6 42,-17 11,-12 16,-26 16,-44 0,-14 -5,-28 -16,-39 -11,-11 -24,-17 -40,-17zm-285 -159c0,-12 5,-23 14,-32 10,-9 21,-13 35,-13 13,0 25,4 34,13 10,9 15,20 15,32 0,13 -5,24 -15,33 -9,9 -21,13 -34,13 -14,0 -25,-4 -35,-13 -9,-9 -14,-20 -14,-33zm10 92l78 0 0 247 -78 0 0 -247zm-298 -131l225 0 0 75 -139 0 0 76 139 0 0 74 -139 0 0 78 139 0 0 75 -225 0 0 -378zm-228 217l176 0 0 75 -176 0 0 -75zm-130 -223l78 0 0 384 -78 0 0 -384zm-291 6l67 0 163 378 -86 0 -33 -74 -153 0 -32 74 -86 0 160 -378zm33 124l-46 112 95 0 -49 -112zm4725 646c-3,3 -7,4 -11,6 -4,1 -7,1 -11,1 -18,0 -33,-10 -45,-29 -12,-20 -22,-50 -29,-91 -2,-8 -3,-19 -4,-31 -1,-11 -2,-19 -3,-21 -1,-3 -4,-6 -8,-9 -4,-4 -6,-7 -6,-10 0,-3 1,-5 3,-6 3,-1 8,-1 15,-1l28 0c9,0 15,1 17,2 3,1 4,3 4,7 0,3 -2,6 -6,9 -1,0 -2,1 -2,1 -5,3 -8,6 -9,9 -1,4 -2,10 -2,18 0,10 1,21 4,34 2,13 6,27 11,42 6,18 12,31 20,39 7,8 15,12 24,12 9,0 15,-3 21,-8 5,-6 11,-17 16,-33 5,-15 10,-30 13,-47 3,-17 4,-32 4,-45 0,-4 0,-8 -1,-11 -1,-3 -3,-5 -5,-7 -1,-1 -4,-3 -7,-4 -5,-3 -8,-6 -8,-10 0,-3 1,-5 4,-6 2,-1 7,-2 14,-2l22 0c7,0 12,1 15,2 3,2 4,4 4,8 0,1 -1,4 -4,8 -3,4 -4,7 -6,11 -1,4 -3,15 -6,36 -3,19 -6,37 -11,52 -14,54 -35,97 -62,130 -26,34 -53,50 -79,50 -7,0 -13,-2 -17,-5 -4,-3 -6,-8 -6,-14 0,-5 1,-8 4,-11 4,-3 8,-4 14,-4 1,0 4,0 8,1 3,1 6,1 8,1 13,0 27,-7 41,-20 13,-13 25,-31 34,-54zm-415 -19l0 -101c0,-14 0,-24 -1,-28 -1,-4 -3,-8 -6,-10 -1,-1 -4,-3 -9,-5 -5,-2 -7,-4 -7,-8 0,-4 4,-9 12,-16 9,-6 15,-10 21,-10 3,0 7,3 10,10 3,6 6,15 8,27 9,-12 19,-21 30,-27 11,-7 24,-10 37,-10 23,0 40,8 51,25 12,16 17,41 17,74l0 81c0,5 0,8 1,10 1,2 2,4 3,5 1,1 3,2 5,3 6,3 9,7 9,10 0,3 -1,5 -3,6 -3,1 -6,2 -11,2l-42 0c-4,0 -8,-1 -10,-2 -2,-1 -3,-3 -3,-5 0,-4 2,-7 6,-9 2,-1 3,-1 3,-2 5,-2 8,-5 9,-7 1,-2 1,-6 1,-12l0 -80c0,-25 -4,-43 -11,-54 -8,-12 -20,-17 -36,-17 -16,0 -29,5 -38,14 -9,10 -14,24 -14,41l0 101c0,3 0,5 1,7 0,1 1,3 2,4 1,1 3,2 6,3 5,3 8,6 8,10 0,3 -1,5 -3,6 -3,1 -7,2 -12,2l-39 0c-5,0 -9,-1 -10,-2 -2,-1 -3,-2 -3,-5 0,-2 0,-4 1,-5 1,-2 3,-3 7,-6 1,0 1,0 2,-1 5,-3 8,-9 8,-19zm-197 3c-9,14 -20,24 -33,31 -13,7 -28,10 -45,10 -20,0 -36,-5 -48,-17 -12,-12 -17,-28 -17,-48 0,-27 10,-47 32,-62 22,-14 54,-22 95,-22l9 0c-1,-15 -7,-27 -18,-36 -10,-9 -24,-13 -41,-13 -10,0 -20,3 -31,10 -12,7 -19,11 -22,11 -4,0 -7,-1 -9,-4 -3,-2 -4,-5 -4,-8 0,-10 6,-17 19,-23 12,-7 29,-10 49,-10 33,0 57,9 72,26 15,17 23,45 23,84l0 67c0,4 0,6 1,8 1,2 3,5 6,8 1,1 3,2 6,3 6,3 9,7 9,11 0,4 -2,7 -7,9 -4,1 -15,2 -33,2 -5,0 -8,-1 -10,-3 -2,-2 -3,-6 -3,-12l0 -22zm-3 -87l-5 0c-32,0 -56,5 -73,16 -18,11 -26,26 -26,46 0,12 4,22 11,30 8,7 17,11 29,11 7,0 14,-1 20,-3 7,-2 13,-5 18,-8 10,-7 17,-14 21,-22 3,-7 5,-18 5,-32l0 -38zm-421 163c0,6 1,10 2,13 0,3 2,5 4,6 2,2 4,3 8,5 7,4 10,8 10,13 0,3 -1,5 -4,7 -2,1 -6,2 -13,2l-46 0c-5,0 -9,-1 -11,-2 -3,-1 -4,-3 -4,-6 0,-5 3,-9 9,-13 1,-1 2,-1 2,-1 1,-1 1,-1 2,-2 6,-4 9,-11 9,-22l0 -183c0,-13 0,-21 -1,-25 -2,-4 -4,-7 -6,-9 -3,-1 -7,-3 -13,-4 -6,-2 -9,-5 -9,-9 0,-5 4,-10 12,-17 8,-6 16,-10 23,-10 6,0 11,3 14,10 4,6 6,15 8,28 10,-12 20,-21 32,-27 12,-7 24,-10 36,-10 27,0 49,10 65,30 16,20 24,47 24,80 0,34 -9,61 -26,82 -18,20 -41,30 -71,30 -14,0 -25,-2 -34,-6 -9,-4 -13,-10 -13,-16 0,-3 1,-6 3,-8 2,-1 4,-2 8,-2 1,0 6,1 14,4 8,2 15,4 21,4 19,0 35,-8 46,-24 11,-16 16,-38 16,-65 0,-24 -5,-43 -16,-58 -12,-14 -26,-22 -44,-22 -15,0 -28,5 -39,14 -12,9 -18,20 -18,33l0 180zm-480 -180l0 -12c0,-8 0,-14 -1,-17 0,-3 -2,-6 -4,-8 -1,-2 -4,-4 -9,-6 -6,-2 -8,-5 -8,-8 0,-2 1,-4 3,-6 2,-3 5,-6 10,-9 4,-3 8,-6 12,-8 4,-2 6,-3 8,-3 4,0 7,4 10,11 3,7 5,16 5,28 8,-13 18,-22 29,-29 12,-6 23,-10 36,-10 13,0 25,4 35,10 11,7 19,15 24,27 10,-13 21,-22 31,-28 11,-6 22,-9 35,-9 19,0 35,7 46,21 11,14 17,33 17,57l0 102c0,4 0,8 1,10 1,2 2,4 4,5 1,1 3,2 6,3 6,3 9,6 9,11 0,2 -1,4 -4,5 -2,1 -6,2 -13,2l-39 0c-5,0 -8,-1 -11,-2 -2,-1 -3,-3 -3,-6 0,-3 2,-6 6,-9 1,0 2,0 2,-1 1,0 2,-1 3,-1 5,-3 8,-9 8,-19l0 -103c0,-15 -4,-26 -11,-34 -7,-7 -17,-11 -30,-11 -15,0 -28,4 -38,13 -9,8 -14,19 -14,33l0 104c0,4 0,8 1,10 1,2 2,4 3,5 2,1 4,2 7,3 6,3 9,6 9,11 0,2 -1,4 -3,5 -3,1 -8,2 -15,2l-38 0c-5,0 -8,-1 -10,-2 -2,-1 -4,-3 -4,-6 0,-3 2,-6 7,-9 0,0 1,0 1,-1 1,0 2,0 3,-1 5,-3 8,-9 8,-19l0 -99c0,-16 -3,-29 -10,-37 -7,-8 -17,-12 -31,-12 -14,0 -27,5 -37,14 -10,10 -15,22 -15,36l0 100c0,4 1,8 2,10 0,2 1,4 3,5 2,1 4,1 6,3 6,3 10,6 10,11 0,2 -2,4 -4,5 -2,1 -6,2 -12,2l-42 0c-4,0 -7,-1 -9,-2 -2,-1 -3,-2 -3,-5 0,-4 3,-7 8,-10l1 -1c0,0 0,0 1,-1 6,-3 8,-10 8,-19l0 -101zm-317 35c0,26 6,47 19,63 12,16 28,24 48,24 19,0 35,-8 48,-24 12,-16 18,-37 18,-63 0,-27 -6,-48 -18,-64 -13,-16 -29,-24 -48,-24 -20,0 -36,8 -48,24 -13,16 -19,37 -19,64zm-35 0c0,-33 9,-60 28,-81 19,-20 44,-31 74,-31 30,0 54,11 73,31 19,21 28,48 28,81 0,32 -9,59 -28,80 -19,20 -43,30 -73,30 -31,0 -55,-10 -74,-30 -19,-21 -28,-48 -28,-80zm-249 114c-44,0 -79,-15 -105,-46 -26,-31 -39,-72 -39,-124 0,-25 3,-48 10,-69 7,-21 17,-39 31,-55 14,-17 31,-30 50,-39 18,-8 40,-12 63,-12 20,0 39,3 58,9 18,6 30,13 36,20 2,3 4,10 5,19 1,10 1,23 1,40 0,4 0,7 -1,9 -1,1 -3,2 -6,2 -5,0 -9,-4 -12,-12 -3,-6 -5,-11 -7,-15 -10,-16 -21,-28 -34,-36 -14,-8 -29,-12 -45,-12 -32,0 -57,13 -77,41 -20,27 -29,63 -29,107 0,44 9,79 29,105 20,26 46,38 80,38 13,0 26,-2 37,-6 12,-4 23,-11 35,-21 5,-4 11,-11 17,-19 7,-9 12,-13 15,-13 3,0 5,1 7,3 2,2 3,5 3,8 0,5 -2,12 -7,20 -4,7 -10,15 -17,21 -14,13 -29,22 -45,28 -16,6 -34,9 -53,9zm-633 -51c0,-4 2,-8 4,-11 3,-2 6,-4 10,-4 4,0 9,4 15,12 1,2 3,4 4,5 5,7 11,12 18,16 7,3 15,5 24,5 12,0 22,-4 30,-11 7,-7 11,-15 11,-26 0,-16 -16,-28 -48,-36 -1,-1 -3,-1 -4,-1 -20,-6 -34,-13 -42,-22 -9,-9 -13,-21 -13,-36 0,-20 6,-36 18,-48 12,-12 28,-18 49,-18 19,0 34,3 45,10 11,6 16,14 16,25 0,8 -1,14 -2,17 -1,2 -3,4 -6,4 -4,0 -8,-4 -13,-10 -2,-3 -4,-4 -5,-6 -5,-6 -11,-10 -18,-13 -7,-3 -15,-5 -23,-5 -10,0 -18,3 -24,9 -7,7 -10,14 -10,23 0,8 2,14 7,19 4,4 12,8 24,12 4,1 10,2 17,4 18,5 29,9 35,14 8,5 15,12 19,20 4,8 6,17 6,28 0,21 -7,38 -20,52 -13,13 -30,19 -52,19 -18,0 -35,-5 -49,-16 -15,-10 -23,-21 -23,-31zm-122 -14c3,0 6,1 7,2 2,1 3,3 3,5 0,5 -2,10 -6,16 -4,7 -9,13 -16,18 -8,7 -16,12 -26,15 -9,4 -19,5 -31,5 -25,0 -46,-9 -62,-29 -17,-20 -25,-44 -25,-75 0,-33 9,-62 27,-84 18,-22 41,-34 68,-34 18,0 34,4 46,13 13,8 19,18 19,29 0,5 -2,9 -5,13 -4,4 -8,5 -12,5 -6,0 -12,-4 -18,-13 -1,-1 -1,-2 -2,-3 -6,-8 -11,-13 -15,-16 -5,-2 -10,-4 -17,-4 -16,0 -30,9 -40,25 -10,17 -15,38 -15,65 0,25 5,44 16,59 11,15 26,22 44,22 5,0 11,-1 16,-2 5,-2 11,-4 15,-7 6,-4 12,-9 18,-15 6,-7 10,-10 11,-10zm-349 -226c0,-6 2,-12 7,-16 4,-4 10,-7 17,-7 7,0 12,3 17,7 4,4 6,10 6,16 0,8 -2,13 -7,17 -4,5 -10,7 -17,7 -7,0 -13,-2 -17,-7 -4,-4 -6,-9 -6,-17zm11 121c0,-5 0,-9 -1,-11 -1,-2 -3,-4 -6,-6 -2,-1 -3,-2 -6,-3 -5,-3 -7,-6 -7,-9 0,-2 1,-4 2,-6 1,-2 4,-4 7,-6l3 -1c17,-10 28,-15 33,-15 3,0 5,2 6,5 1,3 2,9 2,19l0 156c0,4 0,7 1,9 1,3 2,4 3,5 2,1 5,2 7,3 7,4 11,7 11,11 0,4 -1,6 -4,7 -2,1 -6,2 -12,2l-44 0c-6,0 -10,-1 -12,-2 -2,-1 -3,-3 -3,-6 0,-2 0,-4 1,-6 2,-2 4,-3 6,-5 1,0 3,-1 5,-2 5,-2 8,-8 8,-15l0 -124zm-218 131l0 -155 -13 0c-7,0 -12,-1 -15,-3 -2,-2 -4,-5 -4,-10 0,-3 1,-6 3,-8 2,-2 4,-4 7,-4 2,0 3,0 5,-1 9,0 14,-2 17,-5 3,-4 5,-16 7,-37 1,-6 2,-11 2,-14 0,-2 1,-4 1,-7 2,-15 6,-22 13,-22 4,0 6,1 7,3 1,2 2,9 2,20l0 62 29 0c7,0 12,1 14,3 3,2 5,5 5,10 0,4 -2,8 -5,10 -3,2 -8,3 -14,3l-29 0 0 132c0,9 0,15 2,19 1,4 3,6 6,8 4,1 12,2 23,3 11,1 16,4 16,9 0,5 -1,9 -4,10 -2,2 -8,3 -18,3l-39 0c-7,0 -12,-1 -15,-4 -2,-3 -3,-11 -3,-25zm-292 -12c0,-4 1,-8 4,-11 2,-2 5,-4 9,-4 4,0 9,4 15,12 2,2 3,4 4,5 6,7 12,12 19,16 7,3 14,5 23,5 12,0 22,-4 30,-11 8,-7 12,-15 12,-26 0,-16 -16,-28 -48,-36 -2,-1 -3,-1 -4,-1 -20,-6 -34,-13 -43,-22 -8,-9 -13,-21 -13,-36 0,-20 6,-36 19,-48 12,-12 28,-18 48,-18 20,0 35,3 45,10 11,6 16,14 16,25 0,8 0,14 -1,17 -1,2 -3,4 -7,4 -3,0 -8,-4 -13,-10 -2,-3 -3,-4 -4,-6 -6,-6 -12,-10 -19,-13 -7,-3 -14,-5 -22,-5 -10,0 -18,3 -25,9 -6,7 -9,14 -9,23 0,8 2,14 6,19 4,4 12,8 25,12 4,1 9,2 16,4 18,5 30,9 36,14 8,5 14,12 18,20 4,8 6,17 6,28 0,21 -6,38 -19,52 -13,13 -31,19 -52,19 -19,0 -35,-5 -50,-16 -15,-10 -22,-21 -22,-31zm-185 -240c0,-6 2,-12 7,-16 4,-4 10,-7 17,-7 7,0 12,3 17,7 4,4 6,10 6,16 0,8 -2,13 -6,17 -5,5 -10,7 -17,7 -8,0 -13,-2 -17,-7 -5,-4 -7,-9 -7,-17zm11 121c0,-5 0,-9 -1,-11 -1,-2 -3,-4 -6,-6 -1,-1 -3,-2 -6,-3 -4,-3 -7,-6 -7,-9 0,-2 1,-4 2,-6 2,-2 4,-4 8,-6l2 -1c17,-10 28,-15 33,-15 3,0 5,2 6,5 1,3 2,9 2,19l0 156c0,4 0,7 1,9 1,3 2,4 4,5 2,1 4,2 7,3 7,4 10,7 10,11 0,4 -1,6 -3,7 -3,1 -7,2 -13,2l-44 0c-6,0 -10,-1 -12,-2 -2,-1 -3,-3 -3,-6 0,-2 1,-4 2,-6 1,-2 3,-3 6,-5 1,0 2,-1 4,-2 6,-2 8,-8 8,-15l0 -124zm-301 46c0,26 5,46 15,60 9,14 23,21 40,21 18,0 32,-7 41,-21 10,-14 14,-34 14,-60 0,-25 -4,-44 -14,-57 -10,-14 -23,-21 -41,-21 -17,0 -31,7 -40,20 -10,14 -15,33 -15,58zm110 85c14,6 25,13 33,21 7,9 10,19 10,31 0,20 -9,36 -27,48 -18,12 -43,18 -74,18 -26,0 -47,-3 -61,-10 -15,-7 -22,-17 -22,-30 0,-7 2,-14 7,-19 5,-6 10,-9 16,-9 2,0 3,1 4,3 2,1 2,3 2,6 0,1 0,3 -1,5 0,2 -1,4 -1,5 0,6 5,12 15,15 10,4 24,6 42,6 21,0 38,-3 50,-10 12,-6 17,-16 17,-27 0,-9 -2,-16 -8,-22 -5,-6 -14,-12 -26,-17 -8,2 -15,3 -20,4 -5,1 -10,1 -14,1 -25,0 -46,-10 -62,-29 -16,-19 -24,-43 -24,-74 0,-30 8,-55 25,-74 16,-19 38,-29 64,-29 8,0 17,1 29,3 12,2 20,2 25,2 1,0 5,0 12,0 7,0 13,0 18,0 7,0 12,1 15,3 4,2 5,6 5,10 0,5 -2,9 -6,11 -4,2 -11,3 -21,3 0,0 -1,0 -2,0 -4,0 -7,0 -11,0 8,8 15,19 19,31 4,12 7,25 7,39 0,17 -3,33 -9,47 -6,15 -15,27 -26,38zm-439 -75c0,26 6,47 19,63 12,16 28,24 47,24 20,0 36,-8 48,-24 13,-16 19,-37 19,-63 0,-27 -6,-48 -19,-64 -12,-16 -28,-24 -48,-24 -19,0 -35,8 -47,24 -13,16 -19,37 -19,64zm-35 0c0,-33 9,-60 28,-81 19,-20 44,-31 73,-31 31,0 55,11 74,31 19,21 28,48 28,81 0,32 -9,59 -28,80 -19,20 -43,30 -74,30 -30,0 -54,-10 -73,-30 -19,-21 -28,-48 -28,-80z"/>
  </g>
 </g>
</svg>
